<?xml version="1.0" encoding="UTF-8" standalone="no"?>
<!DOCTYPE svg PUBLIC "-//W3C//DTD SVG 1.1//EN" "http://www.w3.org/Graphics/SVG/1.1/DTD/svg11.dtd">
<svg version="1.1" xmlns="http://www.w3.org/2000/svg" xmlns:xlink="http://www.w3.org/1999/xlink" preserveAspectRatio="xMidYMid meet" viewBox="0 0 640 640" width="640" height="640"><defs><path d="M164.96 461.43C159.71 508.47 156.79 534.6 156.21 539.83C156.21 539.83 108.58 592.01 64.84 608.32C6.85 629.9 -14.48 599.06 9.98 544.28C13.64 538.05 31.92 506.89 64.84 450.81L101.71 411.95L165.03 441.04" id="a1c5dRtv7"></path><path d="M478.89 384.24C478.89 384.24 545.21 433.77 586.15 516.11C612.76 573.14 503.96 570.84 427.25 562.38C377.82 532.25 378.1 521.94 378.1 521.94C398.26 494.4 458.73 411.78 478.89 384.24Z" id="bWVd4KKi5"></path><path d="M527.14 495.31C496.76 483.71 465.9 487.73 440.96 500.28" id="a9ez9OvB5w"></path><path d="M103.52 515.85C103.52 515.85 49.95 525.89 26.16 542" id="fn0ngaLk5"></path><path d="M493.91 394.12C489.2 399.2 465.63 424.59 423.22 470.31L440.96 513.44L408.72 552.69L423.04 638.84L145.25 640L167.69 537.3L51.47 465.93C84.31 413.42 102.55 384.24 106.2 378.4C106.2 378.4 120.77 351.11 168.61 339.91C207.23 330.86 346.17 303.74 388.11 316.61C431.9 330.03 472.75 378.61 493.91 394.12Z" id="e2saJEgwcA"></path><path d="M307.56 298.7L306.82 318.32C316.64 317.63 322.1 317.25 323.19 317.17C329.46 321.07 339.14 383.93 280.51 396.59C235.11 406.39 213.26 360.18 206.92 333.69C208.12 333.38 214.11 331.83 224.91 329.05L238.39 251.15L307.56 298.7Z" id="hqYNIEAVk"></path><path d="M226.68 96.91C226.68 96.91 226.68 96.91 226.68 96.91C220.48 79.16 217.04 69.29 216.35 67.32C216.35 67.32 216.35 67.32 216.35 67.32C226.38 63.78 231.96 61.81 233.07 61.42C233.07 61.42 233.07 61.42 233.07 61.42C239.27 79.17 242.71 89.03 243.4 91.01C243.4 91.01 243.4 91.01 243.4 91.01C233.37 94.55 227.8 96.51 226.68 96.91Z" id="e5OgXOAVfN"></path><path d="M212.88 8.91C195.58 8.91 181.56 23.01 181.56 40.39C181.56 57.78 195.58 71.87 212.88 71.87C230.17 71.87 244.2 57.78 244.2 40.39C244.2 23.01 230.17 8.91 212.88 8.91Z" id="b381Gjzgb0"></path><path d="M238.06 229.45C234.24 230.22 232.12 230.65 231.69 230.73C231.69 230.73 194.76 235.09 196.84 201.04C198.44 175.26 223.72 176.78 235.85 179.04" id="c5dyUf0PVV"></path><path d="M305.62 300.73C256.11 300.23 228.27 251.58 228.57 204.97C228.88 158.37 253.85 122.45 285.2 122.04C316.56 121.64 378.44 102.7 369.86 215.11C368.67 230.64 355.14 301.24 305.62 300.73Z" id="b8eMfqNTx"></path><path d="M324.19 77.97C403.85 114.18 404.06 174.57 370.56 202.06C370.56 202.06 370.56 202.06 370.56 202.06C371.83 159.27 361.43 138.52 346.8 128.73C330.82 154.34 279.19 176.52 231.91 177.08C231.8 177.5 231.72 177.93 231.62 178.36C218.65 176.75 198.25 177.91 196.84 201.02C194.89 232.89 227.15 231.11 231.31 230.75C231.85 233.27 238.46 256.07 238.46 256.07C237.99 258.25 235.6 269.15 231.31 288.78C168.2 278.95 133.14 273.49 126.13 272.39C120.92 272.28 116.8 267.94 116.92 262.71C116.94 261.75 117.11 260.8 117.41 259.9C130.06 222.02 150.67 110.26 240.16 80.43C268 71.57 297.87 67.47 324.19 77.97Z" id="cF54RZWAE"></path><path d="M313.37 234.77L328.08 236.56L325.01 177.03" id="bs8aflHX"></path><path d="M339.79 177.18C339.79 177.18 350.94 172.08 355.7 180.73" id="i1c9xlLOWY"></path><path d="M282.96 174.75C282.96 174.75 292.84 167.5 299.25 174.97" id="c10QnNguw2"></path><path d="M293.74 184.15C296.42 184.57 298.07 188.29 297.43 192.46C296.78 196.63 294.08 199.67 291.4 199.25C288.72 198.83 287.07 195.11 287.72 190.94C288.36 186.77 291.06 183.73 293.74 184.15Z" id="bCQ9dPKPm"></path><path d="M346.69 188.68C349.39 188.98 351.22 192.61 350.77 196.81C350.32 201 347.77 204.17 345.07 203.87C342.37 203.58 340.55 199.95 341 195.75C341.44 191.56 344 188.39 346.69 188.68Z" id="ed6EdfMmF"></path><path d="M233.87 252.78L222.97 229.95" id="d1YHns74Ay"></path><path d="M248.6 215.75L225.7 178.32" id="h84g646sFu"></path><path d="M228.57 248.83C234.28 266.46 283.41 337.71 338.78 299.59C349.06 292.37 357.53 282.85 363.54 271.78C377 247.53 376.01 231.95 376.01 231.95C376.01 231.95 352.97 208.25 334.72 204.43C316.46 200.61 309.16 213.88 284.99 218.44C270.67 221.12 255.92 217.2 244.79 207.75C241.55 215.96 243.8 247.88 228.57 248.83Z" id="a4DyyGbWzc"></path><path d="M475.15 453.62C483.25 438.88 499.43 420.34 549.54 421.43C605.48 422.65 607.66 456.66 635.92 527.03C638.16 534.17 608.22 549.85 608.07 584.63C567.25 556.42 598.3 480.84 536.85 487.79C492.77 493.79 483.65 483.4 483.65 483.4C481.95 477.45 476.85 459.58 475.15 453.62Z" id="fqU8ljR18"></path><path d="M506.95 488.41L508.73 483.92" id="k1t2RzmiAq"></path><path d="M511.82 476.12C516.48 464.34 523.55 446.43 528.73 433.16" id="e7ahOwLDb"></path><path d="M530.4 429.54L532.15 425.04" id="a6cgTuuSXb"></path><path d="M576.91 507.06C576.91 507.06 601.57 479.17 603.63 450.79" id="g2BUxmSSFA"></path><path d="M530.4 365.71C530.4 365.71 530.4 365.71 530.4 365.71C458.47 459.21 418.51 511.15 410.51 521.54C410.51 521.54 410.51 521.54 410.51 521.54C371.93 491.53 350.49 474.87 346.21 471.53C346.21 471.53 346.21 471.53 346.21 471.53C418.14 378.04 458.1 326.1 466.09 315.71C466.09 315.71 466.09 315.71 466.09 315.71C504.67 345.71 526.11 362.38 530.4 365.71Z" id="acy6iwM4E"></path><path d="M351.74 475.85L419.23 388.13" id="guz9FvtWi"></path><path d="M358.21 480.88L453.36 357.22" id="bhSsBApXK"></path><path d="M364.69 485.92L459.83 362.25" id="e14w7bQ1iA"></path><path d="M371.16 490.95L466.31 367.29" id="aEiFPUcGv"></path><path d="M377.63 495.98L472.78 372.33" id="bpsSUNM9X"></path><path d="M384.11 501.02L479.25 377.36" id="i2X25Kaxu1"></path><path d="M390.59 506.05L485.73 382.39" id="br6vKJqGj"></path><path d="M397.06 511.09L492.21 387.43" id="b7hxTIFbJ"></path><path d="M403.54 516.13L498.68 392.46" id="c2CLiyLbAk"></path><path d="M503.15 401.12C503.15 401.12 447.48 339.88 389.64 415.07C394.89 408.25 421.12 374.15 468.34 312.78L532.64 362.79C516.91 383.23 507.08 396.01 503.15 401.12Z" id="asqraj0BB"></path><path d="M468.34 312.78L480.64 305.84L544.95 355.84L532.64 362.79L532.64 362.79L468.34 312.78Z" id="a1hE58xZHI"></path><path d="M469.89 280.38C469.89 280.38 469.89 280.38 469.89 280.38C394.31 452.73 352.32 548.48 343.93 567.63C343.93 567.63 343.93 567.63 343.93 567.63C299.29 547.85 274.49 536.86 269.53 534.67C269.53 534.67 269.53 534.67 269.53 534.67C345.12 362.31 387.11 266.56 395.5 247.41C395.5 247.41 395.5 247.41 395.5 247.41C440.14 267.19 464.94 278.18 469.89 280.38Z" id="csfbQ3Yfi"></path><path d="M276.01 537.49L367.41 329.01" id="f15Ja3jrNf"></path><path d="M283.49 540.81L393.14 290.74" id="a460136Rdk"></path><path d="M290.99 544.13L400.62 294.06" id="ec0Y3BjE1"></path><path d="M298.47 547.45L408.12 297.38" id="c1QUd0oLPo"></path><path d="M305.97 550.77L415.6 300.7" id="a1KkMGn0sl"></path><path d="M313.46 554.09L423.1 304.02" id="dvzU3khIs"></path><path d="M320.95 557.41L430.58 307.33" id="a8JvVSQso"></path><path d="M328.44 560.73L438.08 310.65" id="amWk7Pjf7"></path><path d="M335.93 564.04L445.56 313.97" id="kSMjdnro4"></path><path d="M451.98 321.29C451.98 321.29 383.28 275.36 345.15 362.31C348.61 354.42 365.9 314.98 397.02 243.98L471.42 276.95C461.05 300.6 454.57 315.38 451.98 321.29Z" id="aO4iptNpe"></path><path d="M397.02 243.98L397.35 228.24L471.75 261.21L471.42 276.95L471.42 276.95L397.02 243.98Z" id="a1exmiJgBH"></path><path d="M516.07 457.8L450.63 418.55L416.53 472.61C416.53 472.61 416.53 472.61 416.53 472.61C409.15 484.31 418.86 493.48 432.67 514.88C438.37 482.57 497.24 486.25 497.24 486.25C499.75 482.45 506.03 472.97 516.07 457.8Z" id="bc0CgyMBl"></path><path d="M496.99 416.32C514.71 427.61 523.09 446.26 515.71 457.96C508.33 469.65 487.99 469.98 470.27 458.68C452.55 447.39 444.16 428.75 451.54 417.05C458.92 405.35 479.27 405.02 496.99 416.32Z" id="fwRF33tJE"></path><path d="M497.37 435.51C503.5 439.42 506.39 445.87 503.84 449.92C501.29 453.96 494.25 454.08 488.12 450.17C481.99 446.27 479.1 439.82 481.65 435.77C484.2 431.72 491.24 431.61 497.37 435.51Z" id="g10ly9AAvv"></path><path d="M492.41 451.78C490.5 449.03 490.47 445.39 492.33 442.62C494.49 439.17 497.72 437.78 500.73 438.59" id="c2jz3xQ9Au"></path><path d="M515.55 461.81C508.17 473.51 488.69 473.57 470.98 462.27C456.55 453.09 448.32 439.63 449.69 428.43" id="aeRkVBMec"></path><path d="M433.8 410.23L360.17 390.54L342.14 451.92C342.14 451.92 342.14 451.92 342.14 451.92C338.24 465.2 351.39 480.82 371.51 486.8C391.63 492.78 411.11 486.85 415.02 473.57C415.15 473.46 415.8 472.92 416.97 471.95L413.82 473.29L433.8 410.23Z" id="b5iwVuEaLc"></path><path d="M404.17 375.64C424.3 381.62 437.44 397.23 433.54 410.52C429.63 423.8 410.16 429.73 390.03 423.75C369.91 417.77 356.76 402.16 360.67 388.87C364.57 375.59 384.05 369.66 404.17 375.64Z" id="jDyy1Pd4c"></path><path d="M409.78 394C416.74 396.07 421.28 401.47 419.93 406.07C418.58 410.67 411.84 412.72 404.89 410.65C397.93 408.58 393.38 403.18 394.73 398.58C396.08 393.99 402.82 391.94 409.78 394Z" id="b2nQZiS8Xf"></path><path d="M409.41 410.99C406.83 408.87 405.81 405.38 406.83 402.2C407.98 398.3 410.69 396.05 413.82 396" id="cqgovqYfo"></path><path d="M428.04 417.58C419.17 429.22 397.11 430.17 378.24 421.61C359.12 412.91 356.77 402.17 360.67 388.89" id="c26Yjpuzy"></path><path d="M357.44 459.42L442.8 478.07L427.26 549.97C427.26 549.97 427.26 549.97 427.26 549.97C423.89 565.53 402.06 573.98 378.48 568.83C354.91 563.68 338.53 546.89 341.9 531.32C341.9 531.32 341.9 531.32 341.9 531.32L357.44 459.42Z" id="a8keDfvMI"></path><path d="M412.51 437.12C436.08 442.27 452.46 459.06 449.1 474.62C445.74 490.19 423.9 498.63 400.33 493.48C376.76 488.33 360.38 471.54 363.74 455.98C367.11 440.41 388.94 431.97 412.51 437.12Z" id="aGApmntxI"></path><path d="M396.77 452.51C404.92 454.29 410.58 460.1 409.42 465.48C408.26 470.87 400.71 473.79 392.56 472.01C384.41 470.23 378.74 464.42 379.91 459.03C381.07 453.65 388.62 450.73 396.77 452.51Z" id="i3C4d1564b"></path><path d="M387.8 468.66C391.56 467.95 394.51 465 395.23 461.22C396.21 456.65 394.71 452.87 391.59 451.09" id="b3QEBYKgVl"></path><path d="M410.61 437.3C434.03 443.1 449.95 460.33 446.16 475.8C442.37 491.26 420.31 499.1 396.89 493.3C393.15 492.37 389.59 491.15 386.28 489.69C368.88 482.03 358.16 467.79 361.34 454.8C365.13 439.34 387.19 431.5 410.61 437.3Z" id="iBRGkk0FT"></path><path d="M263.87 396.94C263.87 452.47 263.87 483.33 263.87 489.5C263.87 508.83 235.56 524.43 200.64 524.43C165.72 524.43 137.41 508.79 137.41 489.5C137.41 483.33 137.41 452.47 137.41 396.94L263.87 396.94Z" id="a1Ljp7fyng"></path><path d="M263.85 393.04C263.85 407.78 235.54 419.73 200.62 419.73C165.69 419.73 137.38 407.78 137.38 393.04C137.38 378.29 165.69 366.34 200.62 366.34C235.54 366.34 263.85 378.29 263.85 393.04Z" id="bg9k6FM0c"></path><path d="M200.62 420.9L200.62 521.71" id="dFvTVtKm3"></path><path d="M200.62 420.9L200.62 425.73" id="a2eiQrOfWd"></path><path d="M200.62 435.86L200.62 511.81" id="a5HsCxGqV"></path><path d="M200.62 516.88L200.62 521.71" id="b1jE0dLhc"></path><path d="M218.94 391.88C218.94 394.67 210.74 396.94 200.62 396.94C190.5 396.94 182.29 394.67 182.29 391.88C182.29 389.08 190.5 386.81 200.62 386.81C210.74 386.81 218.94 389.08 218.94 391.88Z" id="gPPivQWzh"></path><path d="M366.8 412.05C366.8 467.58 366.8 498.43 366.8 504.6C366.8 523.94 338.49 539.54 303.56 539.54C268.64 539.54 240.32 523.89 240.32 504.6C240.32 498.43 240.32 467.58 240.32 412.05L366.8 412.05Z" id="b3R16k9Gx5"></path><path d="M366.8 408.09C366.8 422.83 338.49 434.78 303.56 434.78C268.64 434.78 240.33 422.83 240.33 408.09C240.33 393.34 268.64 381.39 303.56 381.39C338.49 381.39 366.8 393.34 366.8 408.09Z" id="c2wbfemXlp"></path><path d="M268.67 431.17L268.67 531.97" id="a1zuA5UA5Y"></path><path d="M268.67 431.17L268.67 436" id="c4lo4UOTNO"></path><path d="M268.67 446.13L268.67 522.07" id="b2e7T3gOED"></path><path d="M268.67 527.13L268.67 531.97" id="a2ElAiTTL"></path><path d="M321.89 406.98C321.89 409.78 313.68 412.05 303.56 412.05C293.45 412.05 285.24 409.78 285.24 406.98C285.24 404.18 293.45 401.92 303.56 401.92C313.68 401.92 321.89 404.18 321.89 406.98Z" id="f1ge4jMeWD"></path><path d="M337.73 448.52C337.73 496.79 337.73 523.6 337.73 528.96C337.73 548.3 309.42 563.9 274.5 563.9C239.58 563.9 211.27 548.26 211.27 528.96C211.27 523.6 211.27 496.79 211.27 448.52L337.73 448.52Z" id="a2uXF0ViDV"></path><path d="M337.73 444.61C337.73 459.36 309.42 471.31 274.5 471.31C239.58 471.31 211.27 459.36 211.27 444.61C211.27 429.87 239.58 417.92 274.5 417.92C309.42 417.92 337.73 429.87 337.73 444.61Z" id="dbKjaiHcD"></path><path d="M287.12 471.3L287.12 560.01" id="bdV4C9rzP"></path><path d="M287.12 471.3L287.12 476.14" id="d1F7ENHdy"></path><path d="M287.12 484.92L287.12 550.78" id="aRsJtPvSM"></path><path d="M287.12 555.18L287.12 560.01" id="gvXQ9Bfyq"></path><path d="M292.82 443.45C292.82 446.25 284.62 448.52 274.5 448.52C264.38 448.52 256.18 446.25 256.18 443.45C256.18 440.65 264.38 438.39 274.5 438.39C284.62 438.39 292.82 440.65 292.82 443.45Z" id="b2dEE1I4OH"></path><path d="M98.6 318.05C98.6 318.05 98.6 318.05 98.6 318.05C106.36 340.82 110.67 353.47 111.54 356C111.54 356 111.54 356 111.54 356C105.96 357.92 102.87 358.99 102.25 359.2C102.25 359.2 102.25 359.2 102.25 359.2C94.49 336.43 90.18 323.78 89.31 321.25C89.31 321.25 89.31 321.25 89.31 321.25C94.89 319.33 97.98 318.26 98.6 318.05Z" id="ataqe8BoE"></path><path d="M118.57 339.45C118.57 339.45 118.57 339.45 118.57 339.45C126.33 362.22 130.64 374.87 131.5 377.4C131.5 377.4 131.5 377.4 131.5 377.4C111.99 384.12 101.15 387.85 98.98 388.6C98.98 388.6 98.98 388.6 98.98 388.6C91.22 365.83 86.91 353.18 86.05 350.65C86.05 350.65 86.05 350.65 86.05 350.65C105.56 343.93 116.4 340.19 118.57 339.45Z" id="b5BTiPS0Ot"></path><path d="M137.42 356.61C149.24 352.46 157.21 356.33 161.34 368.21C199.65 478.51 220.94 539.79 225.2 552.05C229.32 563.93 225.48 571.95 213.66 576.1C182.15 587.16 164.64 593.3 161.14 594.53C149.32 598.68 141.35 594.82 137.22 582.93C98.9 472.63 77.62 411.35 73.36 399.09C69.23 387.21 73.08 379.2 84.9 375.05C116.41 363.98 133.91 357.84 137.42 356.61Z" id="c1yK7RIqnZ"></path><path d="M191.82 430.21L179.64 395.12C166.22 399.81 158.76 402.41 157.27 402.93C143.38 390.05 121.74 390.93 108.93 404.89C104.07 410.19 100.99 416.88 100.12 424.03C98.51 424.66 90.49 427.84 76.04 433.55L87.77 467.3C104.23 461.02 113.37 457.53 115.2 456.83C130.95 467.32 152.18 462.99 162.62 447.15C164.34 444.54 165.7 441.69 166.66 438.71C170.02 437.57 178.4 434.74 191.82 430.21Z" id="ayqforfV4"></path><path d="M92.36 322.05C72.59 327.69 69.87 313.02 74.17 310.97C77.15 309.54 95.35 300.41 106.23 294.94C111.88 292.09 118.03 290.36 124.34 289.85C126.29 289.65 128.26 289.56 130.22 289.57C136.46 289.88 136.48 297.24 129.3 297.62C121.03 298 110.6 303.15 110.6 303.15C106.95 306.93 112.33 316.32 92.36 322.05Z" id="aNJwDCuYm"></path><path d="M151.22 413.46L141.05 416.96L137.57 406.73L119.85 412.81L123.32 423.04L113.14 426.54L119.2 444.36L129.38 440.86L132.85 451.09L150.57 445.01L147.1 434.78L157.27 431.28L157.27 431.28L151.22 413.46Z" id="a2y01pf2tk"></path><path d="M207.07 478.52C207.07 478.52 235.33 470.97 247.14 465.86C258.96 460.75 256.06 451.36 249.77 450.81C246.3 450.53 216.71 458.23 187.82 469.46C190.1 462.94 196.92 440.95 185.81 438.96C173.06 436.67 173.14 465.39 147.12 489.21C140.98 493.23 136.08 497.34 133.14 501.46C129.09 502.7 108.81 508.9 72.31 520.05L101.27 618.16C131.78 575.08 148.73 551.15 152.12 546.36C169.52 555.49 214.93 533.66 214.93 533.66C253.14 530.77 254.8 518.95 248.17 517.16C241.54 515.37 209.37 516.05 209.37 516.05C209.37 516.05 213.46 512.61 240.63 512.19C267.8 511.76 265.4 496.18 259.82 494.79C254.23 493.4 207.99 497.88 207.99 497.88C212.93 496.88 252.41 488.82 257.35 487.81C270.77 485.97 273.39 473.6 267.01 470.67C262.82 468.75 226.81 475.23 207.07 478.52Z" id="b1o4M79mth"></path><path d="M449.23 492.84C397.53 505.07 368.81 511.86 363.06 513.22C361.72 512.8 359.57 512.03 359.57 512.03C322.75 510.74 304.31 486.94 295.57 496.97C289.5 503.94 301.06 513.82 308.69 519.21C281.51 526.97 255.42 538.3 252.65 540.57C247.73 544.55 250.58 553.98 263.22 551.56C275.85 549.13 303.47 539.47 303.47 539.47C285.27 547.87 251.84 562.79 249.45 566.73C245.8 572.76 254.86 581.52 267.08 575.46C271.73 573.51 308.92 557.93 313.57 555.98C313.57 555.98 272.73 578.32 268.88 582.62C265.04 586.92 271.76 601.15 294.47 586.22C317.17 571.29 322.52 571.83 322.52 571.83C322.52 571.83 295.67 591.42 291.18 596.63C286.69 601.85 305.52 615.17 329.01 592.32C329.01 592.32 372.44 576.45 378.14 567.34C384.26 569.29 414.86 579.03 469.93 596.56L449.23 492.84Z" id="b221beruAr"></path></defs><g><g><g><use xlink:href="#a1c5dRtv7" opacity="1" fill="#ffffff" fill-opacity="1"></use><g><use xlink:href="#a1c5dRtv7" opacity="1" fill-opacity="0" stroke="#1d2d3d" stroke-width="6" stroke-opacity="1"></use></g></g><g><use xlink:href="#bWVd4KKi5" opacity="1" fill="#ffffff" fill-opacity="1"></use><g><use xlink:href="#bWVd4KKi5" opacity="1" fill-opacity="0" stroke="#1d2d3d" stroke-width="6" stroke-opacity="1"></use></g></g><g><use xlink:href="#a9ez9OvB5w" opacity="1" fill="#000000" fill-opacity="0"></use><g><use xlink:href="#a9ez9OvB5w" opacity="1" fill-opacity="0" stroke="#1d2d3d" stroke-width="6" stroke-opacity="1"></use></g></g><g><use xlink:href="#fn0ngaLk5" opacity="1" fill="#000000" fill-opacity="0"></use><g><use xlink:href="#fn0ngaLk5" opacity="1" fill-opacity="0" stroke="#1d2d3d" stroke-width="6" stroke-opacity="1"></use></g></g><g><use xlink:href="#e2saJEgwcA" opacity="1" fill="#3285ff" fill-opacity="1"></use><g><use xlink:href="#e2saJEgwcA" opacity="1" fill-opacity="0" stroke="#000000" stroke-width="1" stroke-opacity="0"></use></g></g><g><use xlink:href="#hqYNIEAVk" opacity="1" fill="#ffffff" fill-opacity="1"></use><g><use xlink:href="#hqYNIEAVk" opacity="1" fill-opacity="0" stroke="#1d2d3d" stroke-width="6" stroke-opacity="1"></use></g></g><g><use xlink:href="#e5OgXOAVfN" opacity="1" fill="#00409f" fill-opacity="1"></use><g><use xlink:href="#e5OgXOAVfN" opacity="1" fill-opacity="0" stroke="#000000" stroke-width="1" stroke-opacity="0"></use></g></g><g><use xlink:href="#b381Gjzgb0" opacity="1" fill="#1d2d3d" fill-opacity="1"></use><g><use xlink:href="#b381Gjzgb0" opacity="1" fill-opacity="0" stroke="#000000" stroke-width="1" stroke-opacity="0"></use></g></g><g><use xlink:href="#c5dyUf0PVV" opacity="1" fill="#ffffff" fill-opacity="1"></use><g><use xlink:href="#c5dyUf0PVV" opacity="1" fill-opacity="0" stroke="#2e186a" stroke-width="6" stroke-opacity="1"></use></g></g><g><use xlink:href="#b8eMfqNTx" opacity="1" fill="#ffffff" fill-opacity="1"></use><g><use xlink:href="#b8eMfqNTx" opacity="1" fill-opacity="0" stroke="#1d2d3d" stroke-width="6" stroke-opacity="1"></use></g></g><g><use xlink:href="#cF54RZWAE" opacity="1" fill="#1d2d3d" fill-opacity="1"></use><g><use xlink:href="#cF54RZWAE" opacity="1" fill-opacity="0" stroke="#000000" stroke-width="1" stroke-opacity="0"></use></g></g><g><use xlink:href="#bs8aflHX" opacity="1" fill="#000000" fill-opacity="0"></use><g><use xlink:href="#bs8aflHX" opacity="1" fill-opacity="0" stroke="#1d2d3d" stroke-width="6" stroke-opacity="1"></use></g></g><g><use xlink:href="#i1c9xlLOWY" opacity="1" fill="#1d2d3d" fill-opacity="1"></use><g><use xlink:href="#i1c9xlLOWY" opacity="1" fill-opacity="0" stroke="#1d2d3d" stroke-width="6" stroke-opacity="1"></use></g></g><g><use xlink:href="#c10QnNguw2" opacity="1" fill="#1d2d3d" fill-opacity="1"></use><g><use xlink:href="#c10QnNguw2" opacity="1" fill-opacity="0" stroke="#1d2d3d" stroke-width="6" stroke-opacity="1"></use></g></g><g><use xlink:href="#bCQ9dPKPm" opacity="1" fill="#1d2d3d" fill-opacity="1"></use><g><use xlink:href="#bCQ9dPKPm" opacity="1" fill-opacity="0" stroke="#1d2d3d" stroke-width="1" stroke-opacity="1"></use></g></g><g><use xlink:href="#ed6EdfMmF" opacity="1" fill="#1d2d3d" fill-opacity="1"></use><g><use xlink:href="#ed6EdfMmF" opacity="1" fill-opacity="0" stroke="#1d2d3d" stroke-width="1" stroke-opacity="1"></use></g></g><g><use xlink:href="#d1YHns74Ay" opacity="1" fill="#000000" fill-opacity="0"></use><g><use xlink:href="#d1YHns74Ay" opacity="1" fill-opacity="0" stroke="#00409f" stroke-width="6" stroke-opacity="1"></use></g></g><g><use xlink:href="#h84g646sFu" opacity="1" fill="#000000" fill-opacity="0"></use><g><use xlink:href="#h84g646sFu" opacity="1" fill-opacity="0" stroke="#00409f" stroke-width="6" stroke-opacity="1"></use></g></g><g><use xlink:href="#a4DyyGbWzc" opacity="1" fill="#92beff" fill-opacity="1"></use><g><use xlink:href="#a4DyyGbWzc" opacity="1" fill-opacity="0" stroke="#92beff" stroke-width="1" stroke-opacity="0"></use></g></g><g><use xlink:href="#fqU8ljR18" opacity="1" fill="#ffffff" fill-opacity="1"></use><g><use xlink:href="#fqU8ljR18" opacity="1" fill-opacity="0" stroke="#1d2d3d" stroke-width="6" stroke-opacity="1"></use></g></g><g><use xlink:href="#k1t2RzmiAq" opacity="1" fill="#000000" fill-opacity="0"></use><g><use xlink:href="#k1t2RzmiAq" opacity="1" fill-opacity="0" stroke="#1d2d3d" stroke-width="6" stroke-opacity="1"></use></g></g><g><use xlink:href="#e7ahOwLDb" opacity="1" fill="#000000" fill-opacity="0"></use><g><use xlink:href="#e7ahOwLDb" opacity="1" fill-opacity="0" stroke="#1d2d3d" stroke-width="6" stroke-opacity="1"></use></g></g><g><use xlink:href="#a6cgTuuSXb" opacity="1" fill="#000000" fill-opacity="0"></use><g><use xlink:href="#a6cgTuuSXb" opacity="1" fill-opacity="0" stroke="#1d2d3d" stroke-width="6" stroke-opacity="1"></use></g></g><g><use xlink:href="#g2BUxmSSFA" opacity="1" fill="#000000" fill-opacity="0"></use><g><use xlink:href="#g2BUxmSSFA" opacity="1" fill-opacity="0" stroke="#1d2d3d" stroke-width="6" stroke-opacity="1"></use></g></g><g><use xlink:href="#acy6iwM4E" opacity="1" fill="#ffffff" fill-opacity="1"></use><g><use xlink:href="#acy6iwM4E" opacity="1" fill-opacity="0" stroke="#2e186a" stroke-width="6" stroke-opacity="1"></use></g></g><g><use xlink:href="#guz9FvtWi" opacity="1" fill="#ffffff" fill-opacity="1"></use><g><use xlink:href="#guz9FvtWi" opacity="1" fill-opacity="0" stroke="#2e186a" stroke-width="6" stroke-opacity="1"></use></g></g><g><use xlink:href="#bhSsBApXK" opacity="1" fill="#000000" fill-opacity="0"></use><g><use xlink:href="#bhSsBApXK" opacity="1" fill-opacity="0" stroke="#00409f" stroke-width="6" stroke-opacity="1"></use></g></g><g><use xlink:href="#e14w7bQ1iA" opacity="1" fill="#000000" fill-opacity="0"></use><g><use xlink:href="#e14w7bQ1iA" opacity="1" fill-opacity="0" stroke="#00409f" stroke-width="6" stroke-opacity="1"></use></g></g><g><use xlink:href="#aEiFPUcGv" opacity="1" fill="#000000" fill-opacity="0"></use><g><use xlink:href="#aEiFPUcGv" opacity="1" fill-opacity="0" stroke="#00409f" stroke-width="6" stroke-opacity="1"></use></g></g><g><use xlink:href="#bpsSUNM9X" opacity="1" fill="#000000" fill-opacity="0"></use><g><use xlink:href="#bpsSUNM9X" opacity="1" fill-opacity="0" stroke="#00409f" stroke-width="6" stroke-opacity="1"></use></g></g><g><use xlink:href="#i2X25Kaxu1" opacity="1" fill="#000000" fill-opacity="0"></use><g><use xlink:href="#i2X25Kaxu1" opacity="1" fill-opacity="0" stroke="#00409f" stroke-width="6" stroke-opacity="1"></use></g></g><g><use xlink:href="#br6vKJqGj" opacity="1" fill="#000000" fill-opacity="0"></use><g><use xlink:href="#br6vKJqGj" opacity="1" fill-opacity="0" stroke="#00409f" stroke-width="6" stroke-opacity="1"></use></g></g><g><use xlink:href="#b7hxTIFbJ" opacity="1" fill="#000000" fill-opacity="0"></use><g><use xlink:href="#b7hxTIFbJ" opacity="1" fill-opacity="0" stroke="#00409f" stroke-width="6" stroke-opacity="1"></use></g></g><g><use xlink:href="#c2CLiyLbAk" opacity="1" fill="#000000" fill-opacity="0"></use><g><use xlink:href="#c2CLiyLbAk" opacity="1" fill-opacity="0" stroke="#00409f" stroke-width="6" stroke-opacity="1"></use></g></g><g><use xlink:href="#asqraj0BB" opacity="1" fill="#ffffff" fill-opacity="1"></use><g><use xlink:href="#asqraj0BB" opacity="1" fill-opacity="0" stroke="#1d2d3d" stroke-width="6" stroke-opacity="1"></use></g></g><g><use xlink:href="#a1hE58xZHI" opacity="1" fill="#ffffff" fill-opacity="1"></use><g><use xlink:href="#a1hE58xZHI" opacity="1" fill-opacity="0" stroke="#1d2d3d" stroke-width="6" stroke-opacity="1"></use></g></g><g><use xlink:href="#csfbQ3Yfi" opacity="1" fill="#ffffff" fill-opacity="1"></use><g><use xlink:href="#csfbQ3Yfi" opacity="1" fill-opacity="0" stroke="#1d2d3d" stroke-width="6" stroke-opacity="1"></use></g></g><g><use xlink:href="#f15Ja3jrNf" opacity="1" fill="#000000" fill-opacity="0"></use><g><use xlink:href="#f15Ja3jrNf" opacity="1" fill-opacity="0" stroke="#00409f" stroke-width="6" stroke-opacity="1"></use></g></g><g><use xlink:href="#a460136Rdk" opacity="1" fill="#000000" fill-opacity="0"></use><g><use xlink:href="#a460136Rdk" opacity="1" fill-opacity="0" stroke="#00409f" stroke-width="6" stroke-opacity="1"></use></g></g><g><use xlink:href="#ec0Y3BjE1" opacity="1" fill="#000000" fill-opacity="0"></use><g><use xlink:href="#ec0Y3BjE1" opacity="1" fill-opacity="0" stroke="#00409f" stroke-width="6" stroke-opacity="1"></use></g></g><g><use xlink:href="#c1QUd0oLPo" opacity="1" fill="#000000" fill-opacity="0"></use><g><use xlink:href="#c1QUd0oLPo" opacity="1" fill-opacity="0" stroke="#00409f" stroke-width="6" stroke-opacity="1"></use></g></g><g><use xlink:href="#a1KkMGn0sl" opacity="1" fill="#000000" fill-opacity="0"></use><g><use xlink:href="#a1KkMGn0sl" opacity="1" fill-opacity="0" stroke="#00409f" stroke-width="6" stroke-opacity="1"></use></g></g><g><use xlink:href="#dvzU3khIs" opacity="1" fill="#000000" fill-opacity="0"></use><g><use xlink:href="#dvzU3khIs" opacity="1" fill-opacity="0" stroke="#00409f" stroke-width="6" stroke-opacity="1"></use></g></g><g><use xlink:href="#a8JvVSQso" opacity="1" fill="#000000" fill-opacity="0"></use><g><use xlink:href="#a8JvVSQso" opacity="1" fill-opacity="0" stroke="#00409f" stroke-width="6" stroke-opacity="1"></use></g></g><g><use xlink:href="#amWk7Pjf7" opacity="1" fill="#000000" fill-opacity="0"></use><g><use xlink:href="#amWk7Pjf7" opacity="1" fill-opacity="0" stroke="#00409f" stroke-width="6" stroke-opacity="1"></use></g></g><g><use xlink:href="#kSMjdnro4" opacity="1" fill="#000000" fill-opacity="0"></use><g><use xlink:href="#kSMjdnro4" opacity="1" fill-opacity="0" stroke="#00409f" stroke-width="6" stroke-opacity="1"></use></g></g><g><use xlink:href="#aO4iptNpe" opacity="1" fill="#ffffff" fill-opacity="1"></use><g><use xlink:href="#aO4iptNpe" opacity="1" fill-opacity="0" stroke="#1d2d3d" stroke-width="6" stroke-opacity="1"></use></g></g><g><use xlink:href="#a1exmiJgBH" opacity="1" fill="#ffffff" fill-opacity="1"></use><g><use xlink:href="#a1exmiJgBH" opacity="1" fill-opacity="0" stroke="#1d2d3d" stroke-width="6" stroke-opacity="1"></use></g></g><g><use xlink:href="#bc0CgyMBl" opacity="1" fill="#3285ff" fill-opacity="1"></use><g><use xlink:href="#bc0CgyMBl" opacity="1" fill-opacity="0" stroke="#000000" stroke-width="1" stroke-opacity="0"></use></g></g><g><use xlink:href="#fwRF33tJE" opacity="1" fill="#3285ff" fill-opacity="1"></use><g><use xlink:href="#fwRF33tJE" opacity="1" fill-opacity="0" stroke="#000000" stroke-width="1" stroke-opacity="0"></use></g></g><g><use xlink:href="#g10ly9AAvv" opacity="1" fill="#000000" fill-opacity="0"></use><g><use xlink:href="#g10ly9AAvv" opacity="1" fill-opacity="0" stroke="#ffffff" stroke-width="4" stroke-opacity="1"></use></g></g><g><use xlink:href="#c2jz3xQ9Au" opacity="1" fill="#000000" fill-opacity="0"></use><g><use xlink:href="#c2jz3xQ9Au" opacity="1" fill-opacity="0" stroke="#ffffff" stroke-width="4" stroke-opacity="1"></use></g></g><g><use xlink:href="#aeRkVBMec" opacity="1" fill="#000000" fill-opacity="0"></use><g><use xlink:href="#aeRkVBMec" opacity="1" fill-opacity="0" stroke="#ffffff" stroke-width="4" stroke-opacity="1"></use></g></g><g><use xlink:href="#b5iwVuEaLc" opacity="1" fill="#3285ff" fill-opacity="1"></use><g><use xlink:href="#b5iwVuEaLc" opacity="1" fill-opacity="0" stroke="#000000" stroke-width="1" stroke-opacity="0"></use></g></g><g><use xlink:href="#jDyy1Pd4c" opacity="1" fill="#3285ff" fill-opacity="1"></use><g><use xlink:href="#jDyy1Pd4c" opacity="1" fill-opacity="0" stroke="#000000" stroke-width="1" stroke-opacity="0"></use></g></g><g><use xlink:href="#b2nQZiS8Xf" opacity="1" fill="#000000" fill-opacity="0"></use><g><use xlink:href="#b2nQZiS8Xf" opacity="1" fill-opacity="0" stroke="#ffffff" stroke-width="4" stroke-opacity="1"></use></g></g><g><use xlink:href="#cqgovqYfo" opacity="1" fill="#000000" fill-opacity="0"></use><g><use xlink:href="#cqgovqYfo" opacity="1" fill-opacity="0" stroke="#ffffff" stroke-width="4" stroke-opacity="1"></use></g></g><g><use xlink:href="#c26Yjpuzy" opacity="1" fill="#000000" fill-opacity="0"></use><g><use xlink:href="#c26Yjpuzy" opacity="1" fill-opacity="0" stroke="#ffffff" stroke-width="4" stroke-opacity="1"></use></g></g><g><use xlink:href="#a8keDfvMI" opacity="1" fill="#92beff" fill-opacity="1"></use><g><use xlink:href="#a8keDfvMI" opacity="1" fill-opacity="0" stroke="#1767dd" stroke-width="6" stroke-opacity="1"></use></g></g><g><use xlink:href="#aGApmntxI" opacity="1" fill="#92beff" fill-opacity="1"></use><g><use xlink:href="#aGApmntxI" opacity="1" fill-opacity="0" stroke="#000000" stroke-width="1" stroke-opacity="0"></use></g></g><g><use xlink:href="#i3C4d1564b" opacity="1" fill="#000000" fill-opacity="0"></use><g><use xlink:href="#i3C4d1564b" opacity="1" fill-opacity="0" stroke="#3285ff" stroke-width="6" stroke-opacity="1"></use></g></g><g><use xlink:href="#b3QEBYKgVl" opacity="1" fill="#000000" fill-opacity="0"></use><g><use xlink:href="#b3QEBYKgVl" opacity="1" fill-opacity="0" stroke="#3285ff" stroke-width="6" stroke-opacity="1"></use></g></g><g><use xlink:href="#iBRGkk0FT" opacity="1" fill="#000000" fill-opacity="0"></use><g><use xlink:href="#iBRGkk0FT" opacity="1" fill-opacity="0" stroke="#3285ff" stroke-width="6" stroke-opacity="1"></use></g></g><g><use xlink:href="#a1Ljp7fyng" opacity="1" fill="#ffffff" fill-opacity="1"></use><g><use xlink:href="#a1Ljp7fyng" opacity="1" fill-opacity="0" stroke="#2e186a" stroke-width="6" stroke-opacity="1"></use></g></g><g><use xlink:href="#bg9k6FM0c" opacity="1" fill="#ffffff" fill-opacity="1"></use><g><use xlink:href="#bg9k6FM0c" opacity="1" fill-opacity="0" stroke="#1d2d3d" stroke-width="6" stroke-opacity="1"></use></g></g><g><use xlink:href="#dFvTVtKm3" opacity="1" fill="#ffffff" fill-opacity="1"></use><g><use xlink:href="#dFvTVtKm3" opacity="1" fill-opacity="0" stroke="#000000" stroke-width="1" stroke-opacity="0"></use></g></g><g><use xlink:href="#a2eiQrOfWd" opacity="1" fill="#000000" fill-opacity="0"></use><g><use xlink:href="#a2eiQrOfWd" opacity="1" fill-opacity="0" stroke="#1d2d3d" stroke-width="6" stroke-opacity="1"></use></g></g><g><use xlink:href="#a5HsCxGqV" opacity="1" fill="#000000" fill-opacity="0"></use><g><use xlink:href="#a5HsCxGqV" opacity="1" fill-opacity="0" stroke="#1d2d3d" stroke-width="6" stroke-opacity="1"></use></g></g><g><use xlink:href="#b1jE0dLhc" opacity="1" fill="#000000" fill-opacity="0"></use><g><use xlink:href="#b1jE0dLhc" opacity="1" fill-opacity="0" stroke="#2e186a" stroke-width="6" stroke-opacity="1"></use></g></g><g><use xlink:href="#gPPivQWzh" opacity="1" fill="#1d2d3d" fill-opacity="1"></use><g><use xlink:href="#gPPivQWzh" opacity="1" fill-opacity="0" stroke="#1d2d3d" stroke-width="1" stroke-opacity="1"></use></g></g><g><use xlink:href="#b3R16k9Gx5" opacity="1" fill="#ffffff" fill-opacity="1"></use><g><use xlink:href="#b3R16k9Gx5" opacity="1" fill-opacity="0" stroke="#1d2d3d" stroke-width="6" stroke-opacity="1"></use></g></g><g><use xlink:href="#c2wbfemXlp" opacity="1" fill="#ffffff" fill-opacity="1"></use><g><use xlink:href="#c2wbfemXlp" opacity="1" fill-opacity="0" stroke="#1d2d3d" stroke-width="6" stroke-opacity="1"></use></g></g><g><use xlink:href="#a1zuA5UA5Y" opacity="1" fill="#ffffff" fill-opacity="1"></use><g><use xlink:href="#a1zuA5UA5Y" opacity="1" fill-opacity="0" stroke="#000000" stroke-width="1" stroke-opacity="0"></use></g></g><g><use xlink:href="#c4lo4UOTNO" opacity="1" fill="#000000" fill-opacity="0"></use><g><use xlink:href="#c4lo4UOTNO" opacity="1" fill-opacity="0" stroke="#2e186a" stroke-width="6" stroke-opacity="1"></use></g></g><g><use xlink:href="#b2e7T3gOED" opacity="1" fill="#000000" fill-opacity="0"></use><g><use xlink:href="#b2e7T3gOED" opacity="1" fill-opacity="0" stroke="#2e186a" stroke-width="6" stroke-opacity="1"></use></g></g><g><use xlink:href="#a2ElAiTTL" opacity="1" fill="#000000" fill-opacity="0"></use><g><use xlink:href="#a2ElAiTTL" opacity="1" fill-opacity="0" stroke="#2e186a" stroke-width="6" stroke-opacity="1"></use></g></g><g><use xlink:href="#f1ge4jMeWD" opacity="1" fill="#1d2d3d" fill-opacity="1"></use><g><use xlink:href="#f1ge4jMeWD" opacity="1" fill-opacity="0" stroke="#1d2d3d" stroke-width="1" stroke-opacity="1"></use></g></g><g><use xlink:href="#a2uXF0ViDV" opacity="1" fill="#ffffff" fill-opacity="1"></use><g><use xlink:href="#a2uXF0ViDV" opacity="1" fill-opacity="0" stroke="#1d2d3d" stroke-width="6" stroke-opacity="1"></use></g></g><g><use xlink:href="#dbKjaiHcD" opacity="1" fill="#ffffff" fill-opacity="1"></use><g><use xlink:href="#dbKjaiHcD" opacity="1" fill-opacity="0" stroke="#1d2d3d" stroke-width="6" stroke-opacity="1"></use></g></g><g><use xlink:href="#bdV4C9rzP" opacity="1" fill="#ffffff" fill-opacity="1"></use><g><use xlink:href="#bdV4C9rzP" opacity="1" fill-opacity="0" stroke="#000000" stroke-width="1" stroke-opacity="0"></use></g></g><g><use xlink:href="#d1F7ENHdy" opacity="1" fill="#000000" fill-opacity="0"></use><g><use xlink:href="#d1F7ENHdy" opacity="1" fill-opacity="0" stroke="#1d2d3d" stroke-width="6" stroke-opacity="1"></use></g></g><g><use xlink:href="#aRsJtPvSM" opacity="1" fill="#000000" fill-opacity="0"></use><g><use xlink:href="#aRsJtPvSM" opacity="1" fill-opacity="0" stroke="#1d2d3d" stroke-width="6" stroke-opacity="1"></use></g></g><g><use xlink:href="#gvXQ9Bfyq" opacity="1" fill="#000000" fill-opacity="0"></use><g><use xlink:href="#gvXQ9Bfyq" opacity="1" fill-opacity="0" stroke="#2e186a" stroke-width="6" stroke-opacity="1"></use></g></g><g><use xlink:href="#b2dEE1I4OH" opacity="1" fill="#1d2d3d" fill-opacity="1"></use><g><use xlink:href="#b2dEE1I4OH" opacity="1" fill-opacity="0" stroke="#1d2d3d" stroke-width="1" stroke-opacity="1"></use></g></g><g><use xlink:href="#ataqe8BoE" opacity="1" fill="#3285ff" fill-opacity="1"></use><g><use xlink:href="#ataqe8BoE" opacity="1" fill-opacity="0" stroke="#000000" stroke-width="1" stroke-opacity="0"></use></g></g><g><use xlink:href="#b5BTiPS0Ot" opacity="1" fill="#3285ff" fill-opacity="1"></use><g><use xlink:href="#b5BTiPS0Ot" opacity="1" fill-opacity="0" stroke="#000000" stroke-width="1" stroke-opacity="0"></use></g></g><g><use xlink:href="#c1yK7RIqnZ" opacity="1" fill="#92beff" fill-opacity="1"></use><g><use xlink:href="#c1yK7RIqnZ" opacity="1" fill-opacity="0" stroke="#000000" stroke-width="1" stroke-opacity="0"></use></g></g><g><use xlink:href="#ayqforfV4" opacity="1" fill="#ffffff" fill-opacity="1"></use><g><use xlink:href="#ayqforfV4" opacity="1" fill-opacity="0" stroke="#000000" stroke-width="1" stroke-opacity="0"></use></g></g><g><use xlink:href="#aNJwDCuYm" opacity="1" fill="#3285ff" fill-opacity="1"></use><g><use xlink:href="#aNJwDCuYm" opacity="1" fill-opacity="0" stroke="#000000" stroke-width="1" stroke-opacity="0"></use></g></g><g><use xlink:href="#a2y01pf2tk" opacity="1" fill="#3285ff" fill-opacity="1"></use><g><use xlink:href="#a2y01pf2tk" opacity="1" fill-opacity="0" stroke="#000000" stroke-width="1" stroke-opacity="0"></use></g></g><g><use xlink:href="#b1o4M79mth" opacity="1" fill="#00409f" fill-opacity="1"></use><g><use xlink:href="#b1o4M79mth" opacity="1" fill-opacity="0" stroke="#000000" stroke-width="1" stroke-opacity="0"></use></g></g><g><use xlink:href="#b221beruAr" opacity="1" fill="#00409f" fill-opacity="1"></use><g><use xlink:href="#b221beruAr" opacity="1" fill-opacity="0" stroke="#000000" stroke-width="1" stroke-opacity="0"></use></g></g></g></g></svg>